<svg id="图层_1" data-name="图层 1" xmlns="http://www.w3.org/2000/svg" viewBox="0 0 96 85.35"><defs><style>.cls-1{fill:#9e9d9d;}</style></defs><title>六边形</title><path class="cls-1" d="M94.9,38.56,75,4.12A8.23,8.23,0,0,0,67.88,0H28.12A8.23,8.23,0,0,0,21,4.12L1.1,38.56a8.23,8.23,0,0,0,0,8.23L21,81.23a8.23,8.23,0,0,0,7.13,4.12H67.88A8.23,8.23,0,0,0,75,81.23L94.9,46.79A8.23,8.23,0,0,0,94.9,38.56ZM84.84,45.91,69.22,73a6.47,6.47,0,0,1-5.6,3.23H32.38A6.47,6.47,0,0,1,26.78,73L11.16,45.91a6.47,6.47,0,0,1,0-6.47L26.78,12.38a6.47,6.47,0,0,1,5.6-3.23H63.62a6.47,6.47,0,0,1,5.6,3.23L84.84,39.44A6.47,6.47,0,0,1,84.84,45.91Z"/></svg>